<?xml version="1.0" standalone="no"?>
<!DOCTYPE svg PUBLIC "-//W3C//DTD SVG 20010904//EN"
 "http://www.w3.org/TR/2001/REC-SVG-20010904/DTD/svg10.dtd">
<svg version="1.0" xmlns="http://www.w3.org/2000/svg"
 width="1600.000000pt" height="1600.000000pt" viewBox="0 0 1600.000000 1600.000000"
 preserveAspectRatio="xMidYMid meet">

<g transform="translate(0.000000,1600.000000) scale(0.100000,-0.100000)"
fill="#000000" stroke="none">
<path d="M12115 14663 c-757 -7 -1502 -61 -1975 -143 -1515 -264 -2174 -969
-2136 -2284 10 -333 42 -620 108 -988 l32 -176 650 -384 c710 -418 812 -482
929 -582 261 -225 446 -581 488 -938 28 -243 -10 -495 -116 -770 -5 -13 1 -18
27 -23 204 -35 366 -67 653 -131 992 -219 1347 -267 1750 -235 584 46 988 213
1307 537 576 588 798 1606 798 3669 l0 450 -998 -998 c-907 -907 -1000 -997
-1029 -997 -62 0 -249 42 -383 86 -618 203 -1184 735 -1444 1355 -72 175 -136
418 -136 523 l0 41 997 997 998 998 -150 -2 c-83 -2 -249 -4 -370 -5z"/>
<path d="M5965 11311 c-214 -58 -357 -148 -725 -456 -327 -273 -603 -477 -890
-654 -454 -282 -691 -352 -978 -290 -304 66 -1048 338 -1895 695 -71 30 -133
54 -138 54 -5 0 -9 -911 -9 -2330 l0 -2330 27 -6 c16 -3 80 -19 143 -34 470
-116 875 -195 1075 -210 244 -18 459 31 626 143 35 23 176 150 314 282 519
497 1047 988 2203 2048 722 662 743 679 907 734 73 25 93 27 235 27 139 -1
164 -3 244 -28 140 -42 199 -74 734 -390 529 -313 584 -342 697 -372 106 -28
305 -26 410 4 302 86 506 297 591 612 25 93 23 279 -5 385 -45 171 -158 346
-286 442 -92 69 -1624 974 -2315 1368 -493 281 -574 315 -775 321 -96 3 -134
0 -190 -15z"/>
<path d="M6489 7963 c-1178 -1067 -2799 -2502 -3019 -2673 -138 -107 -1508
-1297 -1574 -1368 -404 -429 -589 -844 -555 -1247 31 -360 237 -705 604 -1011
271 -227 561 -337 839 -321 163 9 295 44 461 122 176 82 323 181 515 345 168
144 197 176 793 869 l545 633 -54 80 c-70 102 -123 209 -162 323 -113 332 -89
711 63 1016 125 250 358 490 611 630 65 35 74 44 74 68 0 107 65 346 130 481
119 245 335 474 581 616 76 44 79 47 79 82 0 59 27 210 55 307 33 114 99 254
172 364 94 141 295 338 438 428 132 84 331 159 487 185 38 6 65 15 61 19 -14
14 -606 361 -658 385 -27 13 -59 24 -71 24 -14 0 -158 -124 -415 -357z m-3411
-4478 c334 -79 493 -462 311 -750 -113 -178 -337 -270 -534 -220 -180 46 -319
180 -366 353 -100 360 227 702 589 617z"/>
<path d="M8924 7985 c-152 -33 -252 -93 -386 -233 -124 -130 -177 -237 -197
-396 -20 -160 26 -342 117 -466 14 -19 -35 24 -109 95 -147 143 -213 189 -334
232 -73 25 -92 28 -215 27 -121 0 -143 -3 -210 -27 -105 -39 -170 -80 -266
-170 -135 -127 -208 -257 -234 -417 -24 -145 9 -314 87 -445 20 -33 86 -111
147 -174 86 -89 101 -107 66 -84 -207 138 -479 155 -692 41 -77 -41 -192 -140
-256 -220 -170 -214 -200 -486 -80 -727 34 -69 62 -106 148 -194 l105 -109
-65 40 c-36 23 -101 53 -145 69 -72 25 -94 28 -210 28 -117 0 -138 -3 -210
-28 -44 -16 -105 -44 -135 -62 -71 -43 -178 -141 -234 -214 -176 -229 -191
-528 -39 -771 22 -34 218 -238 511 -534 521 -523 555 -552 708 -602 77 -25
104 -29 204 -29 100 0 127 4 204 29 116 38 211 102 316 212 100 105 159 211
185 330 43 192 -12 434 -129 563 -13 14 9 4 55 -26 45 -29 113 -62 165 -79 77
-25 104 -29 204 -29 100 0 127 4 204 29 116 38 211 102 316 212 149 158 208
309 197 513 -6 125 -34 218 -98 320 l-41 66 44 -42 c67 -64 158 -117 255 -149
76 -25 103 -29 203 -29 100 0 127 4 204 29 116 38 211 102 316 212 149 158
208 309 197 513 -8 177 -64 302 -199 446 -70 75 -70 76 -25 46 192 -131 455
-147 668 -41 126 62 280 212 347 338 120 225 95 519 -62 720 -75 96 -1045
1056 -1106 1095 -151 94 -332 128 -496 92z"/>
</g>
</svg>
